<svg id="图层_1" data-name="图层 1" xmlns="http://www.w3.org/2000/svg" viewBox="0 0 699.36 995.53"><defs><style>.cls-1,.cls-2,.cls-4,.cls-8{fill:none;}.cls-1{stroke:#0071bc;}.cls-1,.cls-2,.cls-3,.cls-4,.cls-8{stroke-miterlimit:10;}.cls-1,.cls-2,.cls-4{stroke-width:3px;}.cls-2{stroke:#009245;}.cls-10,.cls-3{fill:#b3b3b3;}.cls-3,.cls-8{stroke:gray;stroke-width:2px;}.cls-4{stroke:#333;}.cls-5{fill:#333;}.cls-12,.cls-6{font-size:21px;}.cls-13,.cls-14,.cls-15,.cls-6{font-family:TimesNewRomanPSMT, Times New Roman;}.cls-7{letter-spacing:-0.1em;}.cls-9{letter-spacing:-0.02em;}.cls-11{fill:gray;}.cls-12{font-family:AdobeSongStd-Light-GBpc-EUC-H, Adobe Song Std;}.cls-14{letter-spacing:-0.02em;}.cls-15{letter-spacing:0em;}</style></defs><rect class="cls-1" x="46" y="240.35" width="607" height="244"/><rect class="cls-2" x="46" y="664.35" width="607" height="225"/><rect class="cls-3" x="230.1" y="1" width="216" height="48.29" rx="24.15"/><rect class="cls-3" x="418.24" y="132.85" width="216" height="55.22"/><line class="cls-4" x1="338.1" y1="121.16" x2="338.1" y2="50.84"/><polygon class="cls-5" points="338.1 142.34 350.29 112.5 338.1 119.58 325.9 112.5 338.1 142.34"/><line class="cls-4" x1="697.86" y1="568.35" x2="697.86" y2="160.84"/><line class="cls-4" x1="526.24" y1="251.16" x2="526.24" y2="187.84"/><polygon class="cls-5" points="526.24 272.35 538.44 242.5 526.24 249.58 514.05 242.5 526.24 272.35"/><line class="cls-4" x1="165.5" y1="345.53" x2="165.5" y2="386.85"/><polygon class="cls-5" points="165.5 324.35 153.3 354.19 165.5 347.11 177.69 354.19 165.5 324.35"/><line class="cls-4" x1="526.24" y1="376.16" x2="526.24" y2="329.35"/><polygon class="cls-5" points="526.24 397.35 538.44 367.5 526.24 374.58 514.05 367.5 526.24 397.35"/><line class="cls-4" x1="395.32" y1="145.35" x2="280.85" y2="145.35"/><polygon class="cls-5" points="416.5 145.34 386.65 133.15 393.74 145.34 386.65 157.54 416.5 145.34"/><line class="cls-4" x1="168.27" y1="674.16" x2="168.27" y2="634.35"/><polygon class="cls-5" points="168.27 695.35 180.46 665.5 168.27 672.58 156.07 665.5 168.27 695.35"/><line class="cls-4" x1="526.24" y1="781.96" x2="526.24" y2="742.14"/><polygon class="cls-5" points="526.24 803.14 538.44 773.29 526.24 780.37 514.05 773.29 526.24 803.14"/><line class="cls-4" x1="526.24" y1="922.16" x2="526.24" y2="871.85"/><polygon class="cls-5" points="526.24 943.35 538.44 913.5 526.24 920.58 514.05 913.5 526.24 943.35"/><line class="cls-4" x1="393.47" y1="177.35" x2="279" y2="177.35"/><polygon class="cls-5" points="414.65 177.34 384.8 165.15 391.88 177.34 384.8 189.54 414.65 177.34"/><line class="cls-4" x1="399.32" y1="718.35" x2="269" y2="718.35"/><polygon class="cls-5" points="420.5 718.35 390.65 706.15 397.74 718.35 390.65 730.54 420.5 718.35"/><line class="cls-4" x1="206.47" y1="25.07" x2="1.5" y2="24.35"/><polygon class="cls-5" points="227.65 25.15 197.84 12.85 204.88 25.07 197.76 37.23 227.65 25.15"/><path class="cls-4" d="M430.43,230.66c-.46,19.05-4.59,46.84-21.93,70.9A95.92,95.92,0,0,1,376.39,330" transform="translate(-89 -33.15)"/><polygon class="cls-5" points="340.5 176.34 329.38 206.61 341.32 199.1 353.76 205.74 340.5 176.34"/><line class="cls-4" x1="303.68" y1="419.11" x2="431.5" y2="419.11"/><polygon class="cls-5" points="282.5 419.11 312.35 431.31 305.26 419.11 312.35 406.92 282.5 419.11"/><line class="cls-4" x1="670.66" y1="568.81" x2="696.19" y2="568.81"/><polygon class="cls-5" points="649.48 568.81 679.33 581 672.25 568.81 679.33 556.62 649.48 568.81"/><line class="cls-4" x1="300.68" y1="568.81" x2="403.5" y2="568.81"/><polygon class="cls-5" points="279.5 568.81 309.35 581 302.26 568.81 309.35 556.62 279.5 568.81"/><line class="cls-4" x1="2.5" y1="419.35" x2="60" y2="419.35"/><line class="cls-4" x1="635" y1="163.13" x2="698" y2="163.13"/><line class="cls-4" x1="413.75" y1="839.39" x2="164" y2="839.39"/><line class="cls-4" x1="165.4" y1="769.03" x2="165.4" y2="839.6"/><polygon class="cls-5" points="165.4 747.85 153.21 777.69 165.4 770.61 177.6 777.69 165.4 747.85"/><line class="cls-4" x1="1.5" y1="421.35" x2="1.5" y2="25.85"/><text class="cls-6" transform="translate(440.21 169.43)">Digesting Structures</text><rect class="cls-3" x="418.24" y="691.39" width="216" height="55.22"/><text class="cls-6" transform="translate(132.04 372.74)">No</text><text class="cls-6" transform="translate(176.04 372.74)">Renew</text><text class="cls-6" transform="translate(281.04 829.74)">No</text><text class="cls-6" transform="translate(264.04 860.74)">Renew</text><text class="cls-6" transform="translate(489.04 910.74)"><tspan class="cls-7">Y</tspan><tspan x="13.06" y="0">es</tspan></text><rect class="cls-8" x="58.27" y="98.08" width="220" height="131.76"/><rect class="cls-3" x="72.45" y="111.08" width="191.62" height="48.29"/><rect class="cls-3" x="72.45" y="167.64" width="191.62" height="48.29"/><text class="cls-6" transform="translate(107.91 140.74)">Get Structures</text><text class="cls-6" transform="translate(99.16 197.3)">Pre-Set Features</text><rect class="cls-3" x="430.43" y="394.96" width="191.62" height="48.29"/><text class="cls-6" transform="translate(243.12 30.65)">Conve<tspan class="cls-9" x="54.83" y="0">r</tspan><tspan x="61.44" y="0">ged</tspan><tspan class="cls-9" x="91.76" y="0"> </tspan><tspan x="96.63" y="0">Thresholds</tspan></text><rect class="cls-3" x="418.24" y="946.23" width="216" height="48.29" rx="24.15"/><rect class="cls-3" x="66.81" y="694.85" width="202.9" height="48.29" rx="24.15"/><rect class="cls-3" x="405.29" y="275.55" width="241.9" height="48.29" rx="24.15"/><text class="cls-6" transform="translate(447.76 724.5)">Result <tspan x="58.92" y="0">Adjustment</tspan></text><polygon class="cls-10" points="170.94 453.35 58.32 419.39 165.59 384.88 278.21 418.84 170.94 453.35"/><path class="cls-11" d="M260,487.53l-116-35L254.57,417l116,35Zm-109.35-35,109.3,33,104-33.45-109.3-33Z" transform="translate(-89 -33.15)"/><text class="cls-6" transform="translate(483.34 975.89)">OS Result</text><text class="cls-6" transform="translate(117.72 424.62)">Conve<tspan class="cls-9" x="54.83" y="0">r</tspan><tspan x="61.44" y="0">ged?</tspan></text><polygon class="cls-10" points="528.92 872.61 416.29 838.65 523.57 804.15 636.19 838.11 528.92 872.61"/><path class="cls-11" d="M617.94,906.8l-116-35,110.55-35.56,116,35Zm-109.35-35,109.3,33,104-33.45-109.3-33Z" transform="translate(-89 -33.15)"/><text class="cls-6" transform="translate(475.7 843.89)">Conve<tspan class="cls-9" x="54.83" y="0">r</tspan><tspan x="61.44" y="0">ged?</tspan></text><text class="cls-6" transform="translate(416.87 305.2)">Coordinated Environment</text><rect class="cls-3" x="405.29" y="544.66" width="241.9" height="48.29" rx="24.15"/><text class="cls-6" transform="translate(416.87 574.31)">Coordinated Environment</text><rect class="cls-3" x="53.26" y="275.55" width="230.01" height="48.29" rx="24.15"/><text class="cls-6" transform="translate(465.86 424.62)">Fitting Curves</text><text class="cls-12" transform="translate(82.78 305.71)"><tspan xml:space="preserve">    </tspan><tspan class="cls-13" x="17.39" y="0" xml:space="preserve"> Initial</tspan><tspan class="cls-14" x="72.79" y="0"> </tspan><tspan class="cls-15" x="77.66" y="0">Thresholds</tspan></text><rect class="cls-8" x="58.27" y="502.93" width="220" height="131.76"/><rect class="cls-3" x="72.45" y="515.93" width="191.62" height="48.29"/><rect class="cls-3" x="72.45" y="572.49" width="191.62" height="48.29"/><text class="cls-6" transform="translate(122.16 590.14)">Polyhedron<tspan x="0" y="25.2">Algorithm</tspan></text><text class="cls-6" transform="translate(114.62 549.63)">Initialization</text><text class="cls-6" transform="translate(109.05 724.5)">All sets of OS</text><text class="cls-6" transform="translate(9.64 415.58)"><tspan class="cls-7">Y</tspan><tspan x="13.06" y="0">es</tspan></text></svg>